<svg
   width="20px"
   height="24px"
   viewBox="0 0 20.312454 24.000103"
   version="1.1"
   id="svg1"
   xml:space="preserve"
   xmlns="http://www.w3.org/2000/svg"
   xmlns:svg="http://www.w3.org/2000/svg"><defs
     id="defs1" /><g
     id="layer1"
     transform="translate(-103.20126,-79.113391)"><g
       id="g39"
       transform="matrix(0.34946678,0,0,0.34946678,67.135848,51.465889)"><path
         id="path8"
         style="fill-opacity:1;stroke-width:0.525785;stroke-linecap:round;stroke-linejoin:round;stroke-miterlimit:0"
         d="m 142.29128,79.113391 a 19.035002,19.035002 0 0 0 -19.03559,19.035592 19.035002,19.035002 0 0 0 18.97645,19.029677 19.035002,19.035002 0 0 1 -0.21146,0.0163 19.035002,19.035002 0 0 1 -1.81883,-0.13161 8.9099998,14.715 11.790304 0 1 -0.46876,5.71526 8.9099998,14.715 11.790304 0 1 -0.0296,0.11682 7.9650002,7.9650002 0 0 0 -6.12783,-2.88203 7.9650002,7.9650002 0 0 0 -6.92929,4.0798 c -0.0283,0.0487 -0.0541,0.0987 -0.0813,0.14787 a 7.9650002,7.9650002 0 0 0 -0.30314,0.61663 c -0.42599,0.96399 -0.65206,2.00677 -0.64768,3.06834 a 7.9650002,7.9650002 0 0 0 -0.003,0.0532 7.9650002,7.9650002 0 0 0 0.003,0.0473 c 0.005,0.27415 0.023,0.55018 0.0592,0.82512 a 7.9650002,7.9650002 0 0 0 0.24399,1.28945 1.933,1.96 69.279323 0 1 -1.21994,2.17076 1.933,1.96 69.279323 0 1 -2.42659,-0.91976 l -0.0222,0.007 c -0.0183,-0.055 -0.033,-0.11041 -0.0503,-0.16561 a 1.933,1.96 69.279323 0 1 -0.0177,-0.037 1.933,1.96 69.279323 0 1 -0.0828,-0.28983 c -1.2933,-4.56708 0.31611,-9.37478 3.85947,-12.27783 a 14.714999,14.714999 0 0 0 -8.04129,-2.39553 14.714999,14.714999 0 0 0 -14.71477,14.71476 14.714999,14.714999 0 0 0 14.71477,14.71477 14.714999,14.714999 0 0 0 6.3171,-1.46246 c 1.68245,0.66268 3.45443,1.25715 5.3027,1.7656 14.14488,3.89122 27.29938,1.34955 29.38221,-5.67682 -0.18664,-4.50282 -0.17676,-10.3897 -0.97892,-14.79462 -0.0742,-0.30959 -0.6604,-7.68284 -3.46021,-12.72736 A 19.035002,19.035002 0 0 0 161.3254,98.148983 19.035002,19.035002 0 0 0 142.29128,79.113391 Z m 0,7.284186 a 11.75,11.75 0 0 1 11.74993,11.751406 11.75,11.75 0 0 1 -11.74993,11.749927 11.75,11.75 0 0 1 -11.74992,-11.749927 11.75,11.75 0 0 1 11.74992,-11.751406 z m 0,4.190699 a 7.8299999,7.5599999 0 0 0 -7.82983,7.560707 7.8299999,7.5599999 0 0 0 7.82983,7.559227 7.8299999,7.5599999 0 0 0 7.82984,-7.559227 7.8299999,7.5599999 0 0 0 -7.82984,-7.560707 z m 0,5.400294 a 2.1599998,2.1599998 0 0 1 2.15894,2.160413 2.1599998,2.1599998 0 0 1 -2.15894,2.158937 2.1599998,2.1599998 0 0 1 -2.16041,-2.158937 2.1599998,2.1599998 0 0 1 2.16041,-2.160413 z m -9.49931,25.4355 h 0.27061 a 1.0583333,1.0583333 0 0 1 1.05728,1.05877 v 2.61734 h 2.61734 a 1.0583333,1.0583333 0 0 1 1.05877,1.05728 v 0.27061 a 1.0583333,1.0583333 0 0 1 -1.05877,1.05729 h -2.61734 v 2.61733 a 1.0583333,1.0583333 0 0 1 -1.05728,1.05877 h -0.27061 a 1.0583333,1.0583333 0 0 1 -1.05728,-1.05877 v -2.61733 h -2.61734 a 1.0583333,1.0583333 0 0 1 -1.05877,-1.05729 v -0.27061 a 1.0583333,1.0583333 0 0 1 1.05877,-1.05728 h 2.61734 v -2.61734 a 1.0583333,1.0583333 0 0 1 1.05728,-1.05877 z" /></g></g></svg>
