<svg xmlns="http://www.w3.org/2000/svg" xml:space="preserve" width="24" height="23" viewBox="0 0 24 22.725"><path d="M12.887 0c-.335-.002-.461.03-.705.172-.474.28-.584.481-1.064 1.974-.43 1.332-.48 1.447-1.757 3.958L8.046 8.689v11.689l1.627 1.083c.894.595 1.75 1.121 1.902 1.169.396.123 6.974.128 7.663.005 1.61-.287 2.973-1.506 3.418-3.058.105-.367 1.264-6.774 1.33-7.352.128-1.127-.612-2.402-1.7-2.924-.674-.325-.96-.343-3.199-.207-2.388.146-2.833.134-3.323-.09-.459-.21-.952-.703-1.16-1.158-.258-.561-.256-.984.007-2.41.374-2.025.368-2.301-.09-3.742-.29-.914-.363-1.07-.607-1.296-.311-.29-.586-.396-1.027-.398M3.132 9.396c-2.612 0-2.914.01-3.017.104-.11.1-.115.375-.115 6.21 0 5.424.01 6.121.098 6.245l.097.14H3.04c2.129 0 2.864-.019 2.92-.075.058-.058.076-1.554.076-6.35V9.396Zm-.115 8.7c.316.006.687.204.869.478.14.21.145.262.126 1.237-.018.919-.033 1.035-.153 1.195a1 1 0 0 1-1.116.366c-.319-.11-.591-.379-.668-.657-.082-.292-.08-1.604 0-1.898.088-.313.478-.657.81-.713a1 1 0 0 1 .132-.009" style="fill-opacity:1;stroke-width:.230128;stroke-linecap:round;stroke-linejoin:round;stroke-miterlimit:0"/></svg>