<svg xmlns="http://www.w3.org/2000/svg" xml:space="preserve" width="24.001" height="11.845"><path d="M27.067 40.33h10.35a1 1 45 0 1 1 1v.378a1 1 135 0 1-1 1h-10.35a1 1 45 0 1-1-1v-.377a1 1 135 0 1 1-1" style="fill:#000;stroke-width:9.06152;stroke-linecap:round;stroke-linejoin:round;stroke-miterlimit:0" transform="translate(-11.869 -24.815)scale(.74031)"/><path d="M5.923 0A5.923 5.923 0 0 0 0 5.922a5.923 5.923 0 0 0 5.923 5.923h4.301a.74.74 0 0 0 .74-.74v-.28a.74.74 0 0 0-.74-.741H8.772v.001H6.803a5.042 4.162 0 0 1-5.042-4.162A5.042 4.162 0 0 1 6.803 1.76h3.421a.74.74 0 0 0 .74-.74V.74a.74.74 0 0 0-.74-.741H8.772Zm12.155 0a5.923 5.923 0 0 1 5.923 5.922 5.923 5.923 0 0 1-5.923 5.923h-4.301a.74.74 0 0 1-.74-.74v-.28a.74.74 0 0 1 .74-.741h1.451v.001h1.97a5.042 4.162 0 0 0 5.042-4.162 5.042 4.162 0 0 0-5.042-4.162h-3.421a.74.74 0 0 1-.74-.74V.74a.74.74 0 0 1 .74-.741h1.451z" style="fill:#000;stroke-width:2.1208;stroke-linecap:round;stroke-linejoin:round;stroke-miterlimit:0"/></svg>