<svg xmlns="http://www.w3.org/2000/svg" xml:space="preserve" width="24" height="18" viewBox="0 0 6.35 4.762"><path d="M5.023.095 4.93.19l.416.423.417.425H2.388v.263h3.374l-.416.425-.416.424.094.096.093.095.574-.586.575-.585-.574-.586L5.117 0ZM0 1.17v.131h.4V1.04H0Zm.8 0v.131h.387V1.04H.8Zm.787 0v.131h.4V1.04h-.4ZM.658 3.006l-.574.586.574.585.574.586.094-.095.094-.096-.416-.424-.417-.425h3.375V3.46H.587l.417-.425.416-.423-.094-.097-.093-.094Zm3.704.586v.131h.4V3.46h-.4Zm.8 0v.131h.388V3.46h-.387Zm.788 0v.131h.4V3.46h-.4Z" style="stroke-width:.267125"/></svg>