<svg
    version="1.1"
    x="0px"
    y="0px"
    viewBox="0 0 24.000005 24.000005"
    enable-background="new 0 0 1000 1000"
    xml:space="preserve"
    width="24.000004"
    height="24.000004"
    xmlns="http://www.w3.org/2000/svg"
    xmlns:svg="http://www.w3.org/2000/svg"
>
    <g transform="matrix(0.0244898,0,0,0.0244898,-0.244898,-0.244898)">
        <path
            d="M 500,990 C 229.4,990 10,770.6 10,500 10,229.4 229.4,10 500,10 770.6,10 990,229.4 990,500 990,770.6 770.6,990 500,990 Z M 500,60.7 C 257.4,60.7 60.7,257.4 60.7,500 60.7,742.7 257.4,939.3 500,939.3 742.6,939.3 939.3,742.6 939.3,500 939.3,257.4 742.6,60.7 500,60.7 Z"
        />
        <path
            d="M 744.6,802.1 V 232.8 l -92.9,-78.4 -309.2,112 v 28 l 280.8,-91.6 v 640.5 h 187 V 802.2 H 744.6 Z M 241.8,626.7 389,598.2 v -72.4 l -147.2,37.5 z m 0,217.4 H 389 v -76 l -147.2,10.4 z m 0,-109 L 389,721.3 V 649 l -147.2,24 z m 0,-218.8 L 389,477 v -75.1 l -147.2,48.2 z m 310.6,-187 -83.1,-48.9 -313.1,109.3 -0.2,456 h 41.2 V 411.8 L 431.5,337 v 506.2 h 120.9 z"
        />
    </g>
</svg>
