<svg xmlns="http://www.w3.org/2000/svg" width="24" height="24.015">
    <path
        d="M3.127 23.937c-.493-.161-.724-.345-1.797-1.435C.096 21.248.028 21.119.03 20.04c0-1.118-.116-.967 3.664-4.756l3.262-3.27-3.262-3.27C-.02 5.02.057 5.119.009 4.059c-.025-.531-.003-.707.128-1.06.14-.378.282-.55 1.297-1.565S2.621.277 2.998.137c.354-.131.53-.153 1.061-.128 1.06.048.962-.03 4.685 3.685l3.27 3.262 3.27-3.262C19.073-.086 18.922.03 20.04.029c1.084-.001 1.205.064 2.494 1.334C23.9 2.708 24 2.884 24 3.953c0 1.156.132.985-3.665 4.79l-3.262 3.27 3.262 3.271c3.78 3.789 3.663 3.638 3.665 4.756 0 1.084-.064 1.205-1.334 2.494C21.32 23.9 21.144 24 20.075 24c-1.157 0-.985.132-4.79-3.665l-3.271-3.262-3.27 3.262c-3.73 3.722-3.63 3.642-4.685 3.678-.403.013-.745-.014-.932-.075"
        style="fill-opacity:1;stroke-width:.0707108"
    />
</svg>