<svg xmlns="http://www.w3.org/2000/svg" xml:space="preserve" width="23.266" height="24" viewBox="0 0 6.156 6.35"><path d="M126.061 102.56c-.641 0-1.161.52-1.161 1.162v2.894c0 .641.52 1.161 1.161 1.161 0 0 .464-.036.64.044.174.08 1.03.987 1.03.987a.347.347 0 0 0 .493 0s.856-.907 1.031-.987.64-.044.64-.044c.64 0 1.16-.52 1.16-1.161v-2.894c0-.642-.52-1.162-1.16-1.162h-1.917zm.41.592h3.013c.504 0 .913.409.913.913v2.275a.913.913 0 0 1-.913.913s-.364-.028-.502.035-.81.776-.81.776a.273.273 0 0 1-.387 0s-.674-.713-.811-.776c-.138-.063-.503-.035-.503-.035a.913.913 0 0 1-.913-.913v-2.275c0-.504.41-.913.913-.913m1.484.784a.96.96 0 0 0-.869.514c-.092.172-.101.237-.048.354.113.248.298.241.535-.019.152-.166.256-.229.378-.229.22 0 .381.15.381.357 0 .139-.05.193-.313.341-.371.21-.435.36-.238.557.115.115.164.129.287.082.719-.274 1.026-.765.819-1.309a.995.995 0 0 0-.932-.648m.036 2.322a.29.29 0 0 0-.29.29.29.29 0 0 0 .29.289.29.29 0 0 0 .29-.29.29.29 0 0 0-.29-.29" style="stroke-width:.0827749;stroke-linecap:round;stroke-linejoin:round;stroke-miterlimit:0" transform="translate(-124.9 -102.56)"/></svg>