<svg xmlns="http://www.w3.org/2000/svg" xml:space="preserve" width="24" height="21.048"><path d="M1.09.022a1.344.962 45 0 0-.344.174A1.156.827 45 0 0 .98 1.598l3.23 3.23A5.92 5.92 0 0 0 0 10.494a5.923 5.923 0 0 0 5.922 5.924h4.301a.74.74 0 0 0 .74-.74v-.281a.74.74 0 0 0-.74-.74H8.77v.002H6.803a5.042 4.162 0 0 1-5.043-4.165 5.042 4.162 0 0 1 4.047-4.068l3.19 3.19h-.829a.74.74 0 0 0-.74.74v.279a.74.74 0 0 0 .74.74h2.588l3.281 3.281h-.262a.74.74 0 0 0-.74.74v.282a.74.74 0 0 0 .74.74h2.023l4.087 4.086a1.254.897 45 0 0 1.539.397 1.325.948 45 0 0-.268-1.608L2.385.522a1.344.962 45 0 0-1.295-.5m7.754 4.55 1.691 1.692a.74.74 0 0 0 .428-.67v-.281a.74.74 0 0 0-.74-.74h-.63Zm4.931 0a.74.74 0 0 0-.74.74v.282a.74.74 0 0 0 .74.74h3.422a5.042 4.162 0 0 1 5.041 4.16 5.042 4.162 0 0 1-3.508 3.965l1.528 1.528A5.92 5.92 0 0 0 24 10.494a5.923 5.923 0 0 0-5.922-5.921h-4.086zm.112 5.043 1.76 1.76h.183a.74.74 0 0 0 .74-.74v-.28a.74.74 0 0 0-.74-.74Z" style="stroke-width:6.70836;stroke-linecap:round;stroke-linejoin:round;stroke-miterlimit:0"/></svg>