<svg
    version="1.0"
    viewBox="0 0 24 24"
    preserveAspectRatio="xMidYMid"
    width="24"
    height="24"
    xmlns="http://www.w3.org/2000/svg"
    xmlns:svg="http://www.w3.org/2000/svg"
>
    <path
        style="stroke-width:0.188046;stroke-linecap:round;stroke-linejoin:round;stroke-miterlimit:0"
        d="M 0,12.0001 A 12.000043,12.000043 0 0 0 12.0001,24 12.000043,12.000043 0 0 0 24,12.0001 12.000043,12.000043 0 0 0 12.0001,0 12.000043,12.000043 0 0 0 0,12.0001 Z m 6.554052,4.37932 c -0.0064,-0.09489 0.0244,-0.184734 0.08595,-0.364259 0.06155,-0.153878 0.954125,-1.128439 1.97998,-2.154295 L 10.486959,11.98347 8.619982,10.116494 C 7.460766,8.947019 6.732329,8.136633 6.691294,7.951979 6.486123,7.151813 7.245376,6.39256 8.045543,6.597731 c 0.389825,0.09233 5.016312,4.719052 5.108639,5.098619 0.14362,0.584738 -0.03066,0.810386 -2.390122,3.190371 -1.28232,1.292577 -2.41092,2.390282 -2.523764,2.451833 -0.28724,0.153879 -0.85138,0.122983 -1.148878,-0.07193 -0.14362,-0.09233 -0.328313,-0.317895 -0.400123,-0.49229 -0.0872,-0.200042 -0.130837,-0.300023 -0.137248,-0.394914 z m 5.07658,0 c -0.0064,-0.09489 0.0244,-0.184734 0.08596,-0.364259 0.06155,-0.153878 0.954125,-1.128439 1.97998,-2.154295 L 15.563548,11.98347 13.696572,10.116494 C 12.537356,8.947019 11.808918,8.136633 11.767884,7.951979 11.562713,7.151813 12.321966,6.39256 13.122133,6.597731 c 0.389825,0.09233 5.016311,4.719052 5.108638,5.098619 0.14362,0.584738 -0.03065,0.810386 -2.390122,3.190371 -1.282319,1.292577 -2.410919,2.390282 -2.523764,2.451833 -0.287239,0.153879 -0.851379,0.122983 -1.148877,-0.07193 -0.14362,-0.09233 -0.328314,-0.317895 -0.400124,-0.49229 -0.0872,-0.200042 -0.130836,-0.300022 -0.137248,-0.394914 z"
    />
</svg>
