<svg
    width="24"
    height="24"
    viewBox="0 0 24 24"
    fill="none"
    xmlns="http://www.w3.org/2000/svg"
>
    <path
        d="M11.1438 2.8C10.7853 3.075 2.84698 16.2 1.46419 18.8C0.849608 19.975 0.849608 20.55 1.43858 21.075C1.8739 21.45 2.97502 21.5 12.04 21.5C21.5148 21.5 22.1806 21.475 22.5647 21.05C22.8207 20.8 23 20.35 23 20.05C23 19.45 13.4741 3.275 12.8339 2.8C12.6034 2.65 12.2193 2.5 11.9888 2.5C11.7584 2.5 11.3742 2.65 11.1438 2.8ZM12.9619 12.175L12.8851 14.875H11.9888H11.0926L11.0157 12.175L10.9389 9.5H11.9888H13.0387L12.9619 12.175ZM13.0131 17C13.4228 17.75 12.9107 18.5 11.9888 18.5C11.067 18.5 10.5548 17.75 10.9645 17C11.1438 16.675 11.5023 16.5 11.9888 16.5C12.4754 16.5 12.8339 16.675 13.0131 17Z"
        fill="#B40000"
    />
</svg>
