<svg
   viewBox="0 0 30.544948 24"
   version="1.1"
   width="30.544949"
   height="24"
   xmlns="http://www.w3.org/2000/svg"
   xmlns:svg="http://www.w3.org/2000/svg"
>
    <path
        style="stroke-width:0.0681818"
        d="M 20.727273,20.181817 V 13.09091 h -9.886365 a 1.09091,1.09091 0 0 1 0,-2.18182 h 9.886365 V 3.8181827 A 3.8222727,3.8222727 0 0 0 16.90909,0 H 3.8181827 A 3.8222727,3.8222727 0 0 0 0,3.8181827 V 20.181817 A 3.8222727,3.8222727 0 0 0 3.8181827,24 H 16.90909 a 3.8222727,3.8222727 0 0 0 3.818183,-3.818183 z m 6.09341,-7.090907 -3.591819,3.5925 a 1.0909091,1.0909091 0 0 0 1.542272,1.542272 l 5.454546,-5.454546 a 1.0909091,1.0909091 0 0 0 0,-1.542272 L 24.771136,5.7743183 a 1.0909091,1.0909091 0 0 0 -1.542272,1.542272 l 3.591819,3.5924997 h -6.09341 v 2.18182 z"
    />
</svg>
