<svg xmlns="http://www.w3.org/2000/svg" xml:space="preserve" width="24" height="24"><path d="M12 0A12 12 0 0 0 0 12a12 12 0 0 0 12 12 12 12 0 0 0 12-12A12 12 0 0 0 12 0m.116 5.945a1.597 1.597 0 0 1 1.48 1.71v2.75h2.75a1.71 1.71 0 0 1 1.71 1.71 1.597 1.597 0 0 1-1.71 1.48h-2.75v2.75a1.71 1.71 0 0 1-1.711 1.71 1.597 1.597 0 0 1-1.478-1.71v-2.75H7.655a1.71 1.71 0 0 1-1.71-1.711 1.597 1.597 0 0 1 1.71-1.48h2.75v-2.75a1.71 1.71 0 0 1 1.711-1.71" style="fill-opacity:1;stroke:none;stroke-width:.593386;stroke-linecap:round;stroke-linejoin:round;stroke-miterlimit:0;stroke-dasharray:none;stroke-opacity:1"/></svg>