<?xml version="1.0" encoding="UTF-8" standalone="no"?>
<!-- Created with Inkscape (http://www.inkscape.org/) -->

<svg
   width="6.3500009mm"
   height="6.3298316mm"
   viewBox="0 0 6.3500009 6.3298314"
   version="1.1"
   id="svg1"
   xml:space="preserve"
   xmlns="http://www.w3.org/2000/svg"
   xmlns:svg="http://www.w3.org/2000/svg"><defs
     id="defs1" /><g
     id="g19"
     transform="matrix(0.04690756,0,0,0.04690756,-10.814834,0.64429259)"><ellipse
       style="fill:#000000;stroke-width:0.157;stroke-linecap:round;stroke-linejoin:round;stroke-miterlimit:0"
       id="path6-9"
       cx="329.40747"
       cy="84.685303"
       rx="36.5215"
       ry="36.521999" /><path
       id="rect17"
       style="fill:#ffffff;stroke-width:0.426102;stroke-linecap:round;stroke-linejoin:round;stroke-miterlimit:0"
       d="m 329.32322,66.685809 a 5.5562499,5.5561326 0 0 0 -5.55625,5.55625 v 2.114083 4.771802 5.41879 a 5.8270001,5.8270001 0 0 0 -0.003,0.04341 5.8270001,5.8270001 0 0 0 0.003,0.04341 v 0.05064 h 0.004 a 5.8270001,5.8270001 0 0 0 1.6676,3.972367 l -0.0181,0.01809 3.92844,3.928959 3.37447,3.373954 1.49449,1.494999 a 5.5561326,5.5562499 45 0 0 7.85792,-5.16e-4 l 0.11885,-0.118856 a 5.5561326,5.5562499 45 0 0 0,-7.857402 l -1.49448,-1.494999 -3.37447,-3.373954 -2.27738,-2.277897 v -3.220992 -4.771802 -2.114083 a 5.5562499,5.5561326 0 0 0 -5.55625,-5.55625 z" /></g><g
     id="g21"
     transform="matrix(0.04690756,0,0,0.04690756,-9.5019092,-3.1463244)"><path
       id="rect12"
       style="fill:#000000;stroke-width:0.264572;stroke-linecap:round;stroke-linejoin:round;stroke-miterlimit:0"
       d="m 206.80236,124.12937 v 50.75556 h 9.10177 a 45.112,45.112 0 0 1 -4.79298,-20.05252 45.112,45.112 0 0 1 12.05972,-30.58315 v -0.11989 z m -12.72325,0.002 c -7.82873,0.008 -12.32458,0.0837 -13.4276,0.22686 -2.70413,0.351 -5.90016,1.33442 -8.37004,2.57556 -8.02521,4.03271 -13.532,11.71154 -14.68282,20.4742 -0.18395,1.40067 -0.26145,6.34875 -0.21187,13.47876 l 0.004,0.54829 h -0.0186 v 9.21856 a 4.2332968,4.2333332 0 0 0 0.0868,0.77825 l 0.005,0.72037 0.64596,0.84697 a 4.2332968,4.2333332 0 0 0 3.49487,1.88774 h 18.47433 a 4.2332968,4.2333332 0 0 0 0.11007,-0.0124 c 2.56826,0.003 4.56687,0.008 7.8729,0.008 l 18.73891,0.004 v -50.72662 l -3.78426,-0.014 c -3.34802,-0.0125 -6.32783,-0.0171 -8.93744,-0.0145 z"
       transform="translate(45.194575,10.662326)" /><circle
       style="fill:#000000;stroke-width:0.157;stroke-linecap:round;stroke-linejoin:round;stroke-miterlimit:0"
       id="path5"
       cx="253.32201"
       cy="95.239998"
       r="28.165001" /></g></svg>
