<svg xmlns="http://www.w3.org/2000/svg" xml:space="preserve" width="24" height="25" viewBox="0 0 6.35 6.61"><g style="fill:#000"><path d="M2.881 283.55a4.601 4.233 0 0 0-2.704.808 4.601 4.233 0 0 0-1.018.936 4.601 4.233 0 0 0-.654 1.18 4.601 4.233 0 0 0-.225 1.309v47.658a4.601 4.233 0 0 0 .225 1.308 4.601 4.233 0 0 0 1.672 2.117 4.601 4.233 0 0 0 1.282.601 4.601 4.233 0 0 0 1.422.208H23.61a4.601 4.233 0 0 0 1.422-.208 4.601 4.233 0 0 0 1.283-.601 4.601 4.233 0 0 0 1.017-.937 4.601 4.233 0 0 0 .654-1.18 4.601 4.233 0 0 0 .225-1.308v-47.658a4.601 4.233 0 0 0-.225-1.308 4.601 4.233 0 0 0-.22-.399 4.601 4.233 0 0 0-.434-.782 4.601 4.233 0 0 0-.509-.468 4.601 4.233 0 0 0-.508-.468 4.601 4.233 0 0 0-1.283-.601 4.601 4.233 0 0 0-1.422-.207zm.587 2.391h19.555a2.588 2.381 0 0 1 2.588 2.382V334.9a2.588 2.381 0 0 1-2.588 2.381H3.468a2.588 2.381 0 0 1-2.588-2.38v-46.58a2.588 2.381 0 0 1 2.588-2.38" style="fill:#000;stroke-width:.854099;stroke-linecap:round;stroke-linejoin:round;stroke-miterlimit:0" transform="translate(3.598 -27.09)scale(.09754)"/><path d="M22.596 298.338c-.514-.027-1.293.139-2.396.42l-2.42.615-5.574 5.538-5.574 5.538-1.786-.13-1.786-.129-.018-.002v7.633l.072.01v.005c.633 0 2.327 2.613 2.327 3.65 0 .212-.187.573-.415.801-.229.229-.765.416-1.191.416H3.06v2.186l1.552-.014c.95-.01 2.018-.221 2.754-.546 3.157-1.397 5.079-5.319 4.166-8.501-.244-.851-.19-.975.926-2.17.867-.926 1.185-1.483 1.185-2.072 0-.705.092-.805.741-.805.94 0 1.376-.435 1.376-1.376 0-.643.103-.74.777-.74.683 0 .787-.104.86-.86.073-.76.19-.876 1.009-.993.818-.117.936-.232 1.009-.992s.175-.86.872-.86c1.104 0 1.94-.943 2.48-2.8.805-2.768.959-3.762-.171-3.822" style="fill:#000;stroke-width:.386469;stroke-linecap:round;stroke-linejoin:round;stroke-miterlimit:0" transform="translate(3.598 -27.09)scale(.09754)"/></g><path d="m3.899 0-.084.015C3.723.032.055.522.022.522c-.018 0-.031 5.545-.014 5.55a744 744 0 0 0 3.858.538c.024.002.033-.07.033-.281v-.184h-.002V.465H3.9V.273Zm-2 1.665a.2.2 0 0 1 .07.012c.085.034.09.053.09.422v.333l-.185.016-.177.015v-.321c0-.356.004-.376.085-.435a.2.2 0 0 1 .117-.042m.157.978c.134-.002.134.025.134.134v.092l-.316.014-.297.012v-.087c0-.136 0-.136.297-.156a4 4 0 0 1 .182-.01m.298.435.053.04a.2.2 0 0 1 .063.077c.005.02.026.216.048.437s.048.43.059.46a.4.4 0 0 0 .114.148.7.7 0 0 1 .112.126c.024.055.018.164-.011.195l-.026.028-.892-.105-.756-.09-.019-.028c-.02-.032-.024-.124-.006-.17a.3.3 0 0 1 .07-.077c.096-.077.104-.107.14-.518.018-.199.035-.376.04-.394a.2.2 0 0 1 .05-.071l.044-.038.437-.01zm-.71 1.578.23.032.242.034v.03c0 .16-.184.245-.331.16-.078-.046-.142-.147-.142-.226z" style="fill:#000;stroke-width:.0975437"/><path fill="none" d="M1.784 4.91c-.078-.045-.141-.146-.141-.225v-.03l.23.032.243.034v.03c0 .16-.184.244-.332.16M1.1 4.364c-.021-.033-.025-.125-.007-.17a.3.3 0 0 1 .07-.077c.097-.078.105-.108.141-.518.017-.199.035-.377.039-.395a.2.2 0 0 1 .05-.07l.044-.038.438-.01.48-.01.053.04c.03.022.058.056.062.077.005.02.027.216.049.437s.048.429.059.46a.4.4 0 0 0 .114.147c.053.05.103.107.111.126.024.056.018.165-.01.196l-.026.028-.892-.106-.757-.089Zm.478-1.557c0-.136 0-.136.297-.156.315-.02.315-.02.315.125v.092l-.315.014-.297.012Zm.12-.667c0-.355.003-.375.085-.434a.2.2 0 0 1 .186-.03c.086.033.09.053.09.422v.333l-.184.015-.178.016z" style="fill:#fff;fill-opacity:0;stroke-width:.0529459"/></svg>