<svg xmlns="http://www.w3.org/2000/svg" xml:space="preserve" width="18px" height="24px" viewBox="0 0 17.978 24"><path d="M96.669 61.647a3.97 3.97 0 0 0-3.969 3.969v49.505a3.97 3.97 0 0 0 3.969 3.97h42.582a3.97 3.97 0 0 0 3.969-3.97V65.616a3.97 3.97 0 0 0-3.969-3.969h-7.536v4.568a1.85 1.85 0 0 1-1.852 1.852h-23.806a1.85 1.85 0 0 1-1.852-1.852v-4.568zm13.975 11.408a.53.53 0 0 1 .368.17l1.08 1.17v.001a.53.53 0 0 1-.03.747l-8.034 7.387a.53.53 0 0 1-.749-.03l-4.5-4.876a.53.53 0 0 1 .031-.747l1.218-1.12a.53.53 0 0 1 .749.03l2.7 2.927a.53.53 0 0 0 .749.03l6.037-5.55a.53.53 0 0 1 .381-.14m5.703 5.125h20.026a1.323 1.323 0 0 1 1.323 1.323v.087a1.323 1.323 0 0 1-1.323 1.323h-20.026a1.323 1.323 0 0 1-1.323-1.323v-.087a1.323 1.323 0 0 1 1.323-1.323m-5.769 8.872a.53.53 0 0 1 .368.17l1.08 1.17a.53.53 0 0 1-.03.748l-8.034 7.386a.53.53 0 0 1-.748-.03l-4.5-4.875a.53.53 0 0 1 .03-.747l1.218-1.12a.53.53 0 0 1 .748.03l2.702 2.927a.53.53 0 0 0 .748.03l6.038-5.55a.53.53 0 0 1 .38-.14m5.769 5.036h20.026a1.323 1.323 0 0 1 1.323 1.323v.086a1.323 1.323 0 0 1-1.323 1.323h-20.026a1.323 1.323 0 0 1-1.323-1.323v-.086a1.323 1.323 0 0 1 1.323-1.323m-5.703 9.047a.53.53 0 0 1 .368.17l1.08 1.171a.53.53 0 0 1-.03.747l-8.034 7.387a.53.53 0 0 1-.749-.03l-4.5-4.876a.53.53 0 0 1 .031-.747l1.218-1.12a.53.53 0 0 1 .749.03l2.7 2.927a.53.53 0 0 0 .749.03l6.037-5.55a.53.53 0 0 1 .381-.139m5.703 4.858h20.026a1.323 1.323 0 0 1 1.323 1.323v.087a1.323 1.323 0 0 1-1.323 1.322h-20.026a1.323 1.323 0 0 1-1.323-1.322v-.087a1.323 1.323 0 0 1 1.323-1.323" style="stroke-width:.917235;stroke-linecap:round;stroke-linejoin:round;stroke-miterlimit:0" transform="translate(-32.988 -18.38)scale(.35586)"/><path d="M117.935 51.648a4.9 4.9 0 0 0-2.254.57c-.85.455-1.549 1.154-2.573 4.29.004.33-1.024.595-2.339.595h-.005l-.094.012h-4.21v8.5h23v-8.5h-4.223l-.098-.012h-.005c-1.315 0-2.342-.266-2.339-.595-1.024-3.136-1.723-3.835-2.573-4.29a4.9 4.9 0 0 0-2.254-.57z" style="stroke-width:.545625;stroke-linecap:round;stroke-linejoin:round;stroke-miterlimit:0" transform="translate(-32.988 -18.38)scale(.35586)"/></svg>