<svg
    width="24"
    height="24"
    viewBox="0 0 24 24"
    fill="none"
    xmlns="http://www.w3.org/2000/svg"
>
    <g clip-path="url(#clip0_142_141)">
        <path
            d="M12 1C10.5555 0.999997 9.12506 1.28452 7.79048 1.83732C6.4559 2.39012 5.24326 3.20037 4.22182 4.22182C3.20037 5.24326 2.39012 6.4559 1.83732 7.79048C1.28452 9.12506 0.999997 10.5555 1 12C0.999997 13.4445 1.28452 14.8749 1.83732 16.2095C2.39012 17.5441 3.20037 18.7567 4.22182 19.7782C5.24326 20.7996 6.4559 21.6099 7.79048 22.1627C9.12506 22.7155 10.5555 23 12 23C13.4445 23 14.8749 22.7155 16.2095 22.1627C17.5441 21.6099 18.7567 20.7996 19.7782 19.7782C20.7996 18.7567 21.6099 17.5441 22.1627 16.2095C22.7155 14.8749 23 13.4445 23 12C23 10.5555 22.7155 9.12506 22.1627 7.79048C21.6099 6.4559 20.7996 5.24326 19.7782 4.22182C18.7567 3.20037 17.5441 2.39012 16.2095 1.83732C14.8749 1.28452 13.4445 0.999997 12 1ZM17.0179 7.64562C17.2169 7.64409 17.4165 7.71879 17.5702 7.87012L17.701 7.99891C18.0083 8.30156 18.012 8.79291 17.7093 9.10027L10.7946 16.1227C10.5967 16.3236 10.3186 16.3938 10.0637 16.3344C9.90799 16.308 9.75871 16.2347 9.63898 16.1131L6.29105 12.713C5.9884 12.4056 5.99207 11.9147 6.29943 11.612L6.43022 11.4832C6.73758 11.1806 7.22853 11.1842 7.53118 11.4916L10.2212 14.2234L16.4692 7.87849C16.6205 7.72481 16.8189 7.64715 17.0179 7.64562Z" 
            fill="#008E2C"
        />
    </g>
    <defs>
        <clipPath id="clip0_142_141">
            <rect width="22" height="22" fill="white" transform="translate(1 1)"/>
        </clipPath>
    </defs>
</svg>
