<svg xmlns="http://www.w3.org/2000/svg" width="21.056" height="24"><path d="M4.394 23.954c-.337-.066-.786-.304-1.056-.56-.262-.247-.55-.757-.608-1.071-.016-.088-.302-3.474-.636-7.525s-.618-7.456-.632-7.566l-.024-.199h18.187l-.025.2c-.013.11-.298 3.513-.632 7.565-.334 4.051-.62 7.437-.636 7.525a2.7 2.7 0 0 1-.192.495 2.14 2.14 0 0 1-1.509 1.14c-.312.058-11.934.056-12.237-.004m3.028-2.892a.8.8 0 0 0 .222-.285c.082-.182.077-.306-.276-5.992-.284-4.577-.375-5.839-.433-5.96a.68.68 0 0 0-.57-.372q-.44-.038-.657.366l-.111.207.36 5.813c.398 6.433.354 6.04.71 6.25.226.131.548.12.755-.027m3.52-.002c.312-.223.292.188.292-6.244 0-6.444.02-6.02-.298-6.248-.205-.146-.605-.146-.81 0-.32.229-.3-.207-.287 6.303l.012 5.875.104.146a.73.73 0 0 0 .986.168m3.453.026c.356-.204.312.186.71-6.24.352-5.685.357-5.81.275-5.992-.17-.378-.58-.511-.954-.31-.383.204-.332-.23-.733 6.248l-.36 5.814.11.207c.197.365.592.478.952.272M1 5.56C.196 5.343-.224 4.418.122 3.627c.111-.254.424-.563.697-.69.212-.097.28-.1 2.504-.114l2.285-.014v-.413c0-.228.022-.527.048-.666.16-.842.84-1.522 1.682-1.682.34-.064 6.046-.064 6.386 0 .842.16 1.522.84 1.682 1.682.026.139.048.438.048.666v.413l2.285.014c2.225.014 2.292.017 2.504.115.28.13.585.435.71.712.137.302.137.838 0 1.14-.125.277-.43.583-.71.712l-.218.101-9.4.01C3.048 5.618 1.18 5.608 1 5.56m13.04-3.227c-.014-.406-.032-.503-.12-.627-.22-.308-.114-.299-3.389-.299s-3.168-.009-3.388.299c-.089.124-.107.22-.12.627l-.017.48h7.05z" style="fill:stroke-width:.0468833"/></svg>