<svg xmlns="http://www.w3.org/2000/svg" width="24" height="24.035"><path d="M28.7 8.56a12.02 12.02 0 0 0-7.7 2.85l-1.72-1.721a.611.611 0 0 0-1.044.432v5.504a1.475 1.475 0 0 0 1.475 1.475h5.504a.611.611 0 0 0 .432-1.044l-1.61-1.61a7.76 7.76 0 0 1 4.662-1.626 7.757 7.757 0 0 1 7.757 7.757 7.757 7.757 0 0 1-7.757 7.757 7.757 7.757 0 0 1-7.706-7.212v-.008a.725.717 0 0 0-.725-.717h-2.933a.59.583 0 0 0-.618.554 3.397 3.363 0 0 0 .008.137h-.006l.013.117a3.397 3.363 0 0 0 .027.235 12.02 12.02 0 0 0 11.94 11.154 12.02 12.02 0 0 0 12.018-12.017A12.02 12.02 0 0 0 28.7 8.559" style="stroke-width:.881862;stroke-linecap:round;stroke-linejoin:round;stroke-miterlimit:0" transform="translate(-16.717 -8.56)"/></svg>