<svg xmlns="http://www.w3.org/2000/svg" xml:space="preserve" width="24" height="24"><path d="M6.808 0a6.8 6.8 0 0 0-4.81 1.999A6.8 6.8 0 0 0 0 6.808v10.384a6.8 6.8 0 0 0 1.998 4.81A6.8 6.8 0 0 0 6.808 24h10.385A6.8 6.8 0 0 0 22 22.002a6.8 6.8 0 0 0 2-4.81V6.808a6.8 6.8 0 0 0-1.999-4.81A6.8 6.8 0 0 0 17.193 0Zm0 1.227h10.385c3.069 0 5.58 2.511 5.58 5.58v10.385c0 3.07-2.511 5.58-5.58 5.58H6.808c-3.07 0-5.58-2.51-5.58-5.58V6.808c0-3.07 2.51-5.58 5.58-5.58M12 7.112a.5.5 0 0 0-.366.177c-.282.332-1.681 1.839-2.253 2.466-.201.221-.492.536-.279.855q.118.18.405.191h1.16v2.867a.56.56 0 0 0 .558.557h1.549a.56.56 0 0 0 .557-.557V10.8h1.16q.285-.012.405-.19c.196-.295-.037-.584-.225-.796-.543-.61-2.014-2.186-2.305-2.526A.5.5 0 0 0 12 7.112M6.65 13.01a.6.6 0 0 0-.226.012.6.6 0 0 0-.207.094.54.54 0 0 0-.215.593 15 15 0 0 1 .097.433l.088.44c.168.846.3 1.403.733 1.788.423.374 1.08.518 2.277.518h5.75c1.145 0 1.778-.16 2.182-.54.408-.383.53-.928.679-1.721l.003-.017c.053-.283.11-.59.186-.901a.54.54 0 0 0-.216-.593.6.6 0 0 0-.206-.094.6.6 0 0 0-.226-.012c-.21.03-.4.166-.464.43-.082.34-.14.65-.194.936l-.005.028c-.102.543-.18.896-.38 1.077-.207.187-.602.26-1.358.26H9.2c-.82 0-1.247-.066-1.473-.257-.213-.18-.298-.543-.412-1.12l-.088-.433a16 16 0 0 0-.111-.491.54.54 0 0 0-.464-.43z" style="stroke-width:.046875"/></svg>