<svg xmlns="http://www.w3.org/2000/svg" xml:space="preserve" width="24" height="24"><g transform="translate(-78.436 -74.351)scale(.70943)"><path d="M127.477 104.804a16.915 16.915 0 0 0-16.915 16.915 16.915 16.915 0 0 0 16.915 16.915 16.915 16.915 0 0 0 16.915-16.915 16.915 16.915 0 0 0-16.915-16.915m0 1.345a15.57 15.57 0 0 1 15.57 15.57l-.001.031a16 16 0 0 0-.01-.413q.008.242.008.485v.002a15.6 15.6 0 0 1-1.78 7.116 16 16 0 0 0 .273-.609c-.194.41-.397.802-.596 1.167a16 16 0 0 0 .272-.46 16 16 0 0 1-.571.99q.145-.245.299-.53a16 16 0 0 1-.444.749 16 16 0 0 1-1.313 1.731 16 16 0 0 0 .87-1.1c-.07.073-.126.114-.166.114-.097 0-.323-.352-.501-.783-.48-1.16-2.723-3.13-4.412-3.877-2.296-1.015-5.122-1.502-7.898-1.467-2.777.035-5.505.592-7.603 1.662-1.399.714-3.498 2.691-3.908 3.682-.179.43-.404.783-.501.783a.14.14 0 0 1-.068-.028 16 16 0 0 1-.56-.748 16 16 0 0 1-.203-.343 16 16 0 0 1-.598-1.095q-.114-.226-.225-.456l.11.243a16 16 0 0 1-.388-.862c.09.206.18.41.278.619a16 16 0 0 1-.286-.64 15.6 15.6 0 0 1-1.215-5.912l.001-.052-.003.033-.002-.032a15.57 15.57 0 0 1 15.57-15.57zm14.06 22.182c.155-.325.303-.653.434-.968a16 16 0 0 1-.433.968m-4.294-18.67q.151.12.296.245a16 16 0 0 0-.296-.246m-19.918.32-.138.128zm-1.31 1.301a16 16 0 0 0-.65.764q.312-.391.65-.764m-1.226 1.535q-.487.699-.897 1.444a16 16 0 0 1 .897-1.444m-.897 1.444-.118.217zm-.118.217q-.402.751-.722 1.54a16 16 0 0 1 .722-1.54m-1.025 2.35q-.18.529-.321 1.071a16 16 0 0 1 .321-1.072m-.618 2.436a16 16 0 0 0-.08.49q.036-.246.08-.49m2.24 10.86.014.022zm1.168 1.564.217.273zm23.079.902a16 16 0 0 1-.758.724 16 16 0 0 0 .758-.724m-2.057 1.77-.229.164z" style="stroke-width:.243613;stroke-linecap:round;stroke-linejoin:round;stroke-miterlimit:0"/><circle cx="127.477" cy="116.596" r="6.595" style="stroke-width:.332165;stroke-linecap:round;stroke-linejoin:round;stroke-miterlimit:0"/></g></svg>