<svg
    viewBox="0 0 24 21.495842"
    version="1.1"
    xml:space="preserve"
    id="svg4"
    width="24"
    height="21.495842"
    xmlns="http://www.w3.org/2000/svg"
    xmlns:svg="http://www.w3.org/2000/svg"
>
    <g transform="matrix(0.90684184,0,0,0.90684184,-71.336066,-84.21757)">
        <path
            class="back-body"
            style="stroke-width:0.264583"
            d="m 96.555488,110.11213 c -0.18311,-1.77415 -0.90177,-3.44264 -2.04234,-4.74169 l -0.86992,-0.99078 0.76558,-0.81508 c 2.47553,-2.6356 7.066732,-2.37114 9.287802,0.535 1.74601,2.28455 1.93154,5.90542 0.36425,7.10875 -0.27941,0.21451 -1.5799,0.32512 -3.88852,0.33072 l -3.468712,0.008 z"
        />
        <path
            class="back-head"
            style="fill-opacity:1;stroke-width:0.186222"
            d="m 97.844965,100.87856 c -2.499079,-0.75735 -3.026439,-4.270819 -0.85854,-5.719887 1.213418,-0.811072 2.717597,-0.709716 3.871035,0.26084 2.58585,2.17585 0.23155,6.442157 -3.012495,5.459047 z"
        />
        <path
            class="front-body"
            style="stroke-width:0.264583"
            d="m 80.304418,116.0561 c -1.37613,-0.83908 -1.74425,-1.86111 -1.61642,-4.48775 0.18301,-3.76056 1.85035,-6.49499 4.86512,-7.97877 1.10118,-0.54197 1.69105,-0.64106 3.81606,-0.64106 2.11762,0 2.70108,0.0973 3.70417,0.61792 1.37158,0.71183 2.96876,2.17137 3.74654,3.42366 1.25662,2.02329 1.67784,6.00936 0.81711,7.73237 -0.8508,1.7031 -1.52361,1.85134 -8.40011,1.85068 -5.56931,-5.3e-4 -6.15726,-0.0444 -6.93247,-0.51705 z"
        />
        <path
            class="front-head"
            style="stroke-width:0.264583"
            d="m 86.023398,101.76961 c -3.55068,-1.07604 -4.29995,-6.067951 -1.21981,-8.12678 1.72402,-1.152367 3.86115,-1.008361 5.49995,0.370604 3.67397,3.091439 0.32899,9.152976 -4.28014,7.756176 z"
        />
    </g>
</svg>
