<svg xmlns="http://www.w3.org/2000/svg" xml:space="preserve" width="24" height="21.496"><path d="M96.555 110.112c-.183-1.774-.901-3.443-2.042-4.742l-.87-.99.766-.815c2.475-2.636 7.067-2.372 9.288.535 1.746 2.284 1.931 5.905.364 7.108-.28.215-1.58.325-3.889.331l-3.468.008z" class="back-body" style="stroke-width:.264583" transform="translate(-71.336 -84.217)scale(.90684)"/><ellipse cx="21.407" cy="14.297" rx="2.154" ry="2.179" style="fill:#fff;fill-opacity:1;stroke-width:2.52736;stroke-linecap:round;stroke-linejoin:round;stroke-miterlimit:0"/><ellipse cx="21.407" cy="14.297" rx="1.785" ry="1.806" style="fill:#e10000;fill-opacity:1;stroke-width:2.09456;stroke-linecap:round;stroke-linejoin:round;stroke-miterlimit:0"/><path d="M24.091-5.267v.48h.915v.914h.48v-.914h.914v-.48h-.914v-.915h-.48v.915z" style="fill:#fff;fill-opacity:1;stroke-width:1.3748;stroke-linecap:round;stroke-linejoin:round;stroke-miterlimit:0" transform="rotate(45)"/><path d="M80.304 116.056c-1.376-.839-1.744-1.861-1.616-4.488.183-3.76 1.85-6.495 4.865-7.978 1.101-.542 1.691-.641 3.816-.641 2.118 0 2.701.097 3.704.617 1.372.712 2.97 2.172 3.747 3.424 1.257 2.023 1.678 6.01.817 7.732-.85 1.704-1.524 1.852-8.4 1.851-5.57 0-6.157-.044-6.933-.517" class="front-body" style="stroke-width:.264583" transform="translate(-71.336 -84.217)scale(.90684)"/><ellipse cx="12.385" cy="17.803" rx="2.872" ry="2.906" style="fill:#fff;fill-opacity:1;stroke-width:3.36981;stroke-linecap:round;stroke-linejoin:round;stroke-miterlimit:0"/><ellipse cx="12.385" cy="17.803" rx="2.38" ry="2.408" style="fill:#e10000;fill-opacity:1;stroke-width:2.79275;stroke-linecap:round;stroke-linejoin:round;stroke-miterlimit:0"/><path d="M19.807 3.51v.641h1.218V5.37l.643.001V4.153h1.218l-.002-.642h-1.218V2.293h-.64V3.51z" style="fill:#fff;fill-opacity:1;stroke-width:1.83307;stroke-linecap:round;stroke-linejoin:round;stroke-miterlimit:0" transform="rotate(45)"/><path d="M87.227 92.87a4.47 4.47 0 0 0-2.423.772c-3.08 2.06-2.332 7.053 1.219 8.129 4.609 1.396 7.953-4.667 4.28-7.758-.923-.776-2.001-1.16-3.076-1.144m.142 5.881a1.863 1.863 0 0 1 1.865 1.86v.003h-.706v-.002a1.156 1.156 0 0 0-1.16-1.155 1.156 1.156 0 0 0-1.154 1.155v.002h-.706v-.002a1.863 1.863 0 0 1 1.86-1.861" class="front-head" style="stroke-width:.264583" transform="translate(-71.336 -84.217)scale(.90684)"/><path d="M98.693 94.614a3.14 3.14 0 0 0-1.706.544c-2.168 1.449-1.641 4.963.858 5.72 3.245.983 5.599-3.284 3.012-5.46-.648-.545-1.408-.816-2.164-.804m.1 4.14a1.31 1.31 0 0 1 1.313 1.309h-.498a.813.813 0 0 0-.815-.813.813.813 0 0 0-.813.813h-.497a1.31 1.31 0 0 1 1.31-1.31" class="front-head" style="stroke-width:.186213" transform="translate(-71.336 -84.217)scale(.90684)"/></svg>