<svg width="16" height="16" viewBox="0 0 16 16" fill="none" xmlns="http://www.w3.org/2000/svg">
    <g clip-path="url(#clip0_97_1387)">
        <path
            d="M15 8.16102C15 7.68519 14.9606 7.20679 14.8767 6.73869H8.14102V9.43417H11.9982C11.8381 10.3035 11.3239 11.0725 10.5708 11.5612V13.3102H12.872C14.2233 12.0911 15 10.2907 15 8.16102Z"
            fill="#4285F4"
        />
        <path
            d="M8.14099 15C10.067 15 11.6912 14.3801 12.8746 13.3102L10.5734 11.5612C9.93313 11.9882 9.10659 12.2299 8.14361 12.2299C6.28062 12.2299 4.70101 10.9979 4.13424 9.34155H1.75958V11.1445C2.97184 13.5082 5.44096 15 8.14099 15Z"
            fill="#34A853"
        />
        <path
            d="M4.13166 9.34171C3.83253 8.47237 3.83253 7.53101 4.13166 6.66166V4.85867H1.75963C0.746791 6.83656 0.746791 9.16681 1.75963 11.1447L4.13166 9.34171Z"
            fill="#FBBC04"
        />
        <path
            d="M8.14098 3.77054C9.15907 3.75511 10.143 4.13063 10.8804 4.81993L12.9192 2.82147C11.6282 1.63319 9.91476 0.979895 8.14098 1.00047C5.44096 1.00047 2.97184 2.49225 1.75958 4.85851L4.13162 6.6615C4.69576 5.00254 6.27799 3.77054 8.14098 3.77054Z"
            fill="#EA4335"
        />
    </g>
    <defs>
        <clipPath id="clip0_97_1387">
            <rect width="14" height="14" fill="white" transform="translate(1 1)"/>
        </clipPath>
    </defs>
</svg>
