<svg width="48" height="48" viewBox="0 0 48 48" fill="none" xmlns="http://www.w3.org/2000/svg">
    <g clip-path="url(#clip0_97_1379)">
        <path
            d="M46 24.5061C46 23.0106 45.8763 21.5071 45.6124 20.0359H24.4432V28.5074H36.5658C36.0628 31.2396 34.4464 33.6566 32.0796 35.1925V40.6892H39.312C43.559 36.8577 46 31.1992 46 24.5061Z"
            fill="#4285F4"
        />
        <path
            d="M24.4431 46C30.4961 46 35.6008 44.0519 39.32 40.6891L32.0877 35.1923C30.0756 36.5342 27.4779 37.2941 24.4513 37.2941C18.5962 37.2941 13.6318 33.4221 11.8505 28.2163H4.38726V33.8828C8.19721 41.3116 15.9573 46 24.4431 46Z"
            fill="#34A853"
        />
        <path
            d="M11.8424 28.2168C10.9022 25.4846 10.9022 22.526 11.8424 19.7938V14.1273H4.3874C1.2042 20.3435 1.2042 27.6671 4.3874 33.8833L11.8424 28.2168Z"
            fill="#FBBC04"
        />
        <path
            d="M24.4431 10.7074C27.6428 10.6589 30.7353 11.8391 33.0526 14.0055L39.4602 7.72461C35.4029 3.99003 30.0178 1.93681 24.4431 2.00148C15.9573 2.00148 8.19721 6.68992 4.38726 14.1267L11.8422 19.7933C13.6153 14.5794 18.588 10.7074 24.4431 10.7074Z"
            fill="#EA4335"
        />
    </g>
    <defs>
        <clipPath id="clip0_97_1379">
            <rect width="44" height="44" fill="white" transform="translate(2 2)"/>
        </clipPath>
    </defs>
</svg>
