<svg width="24" height="24" viewBox="0 0 24 24" fill="none" xmlns="http://www.w3.org/2000/svg">
    <g clip-path="url(#clip0_97_1381)">
        <path
            d="M23 12.253C23 11.5053 22.9382 10.7535 22.8062 10.0179H12.2216V14.2537H18.2829C18.0314 15.6198 17.2232 16.8283 16.0398 17.5962V20.3446H19.656C21.7795 18.4288 23 15.5996 23 12.253Z"
            fill="#4285F4"
        />
        <path
            d="M12.2216 23C15.2481 23 17.8004 22.0259 19.66 20.3446L16.0439 17.5962C15.0378 18.2671 13.7389 18.647 12.2257 18.647C9.29812 18.647 6.81588 16.711 5.92524 14.1081H2.19363V16.9414C4.09861 20.6558 7.97865 23 12.2216 23Z"
            fill="#34A853"
        />
        <path
            d="M5.92118 14.1084C5.45112 12.7423 5.45112 11.263 5.92118 9.8969V7.06363H2.1937C0.6021 10.1717 0.6021 13.8336 2.1937 16.9417L5.92118 14.1084Z"
            fill="#FBBC04"
        />
        <path
            d="M12.2216 5.35371C13.8214 5.32946 15.3676 5.91956 16.5263 7.00275L19.7301 3.8623C17.7014 1.99501 15.0089 0.968407 12.2216 1.00074C7.97865 1.00074 4.09861 3.34496 2.19363 7.06337L5.92112 9.89664C6.80763 7.28971 9.29399 5.35371 12.2216 5.35371Z"
            fill="#EA4335"
        />
    </g>
    <defs>
        <clipPath id="clip0_97_1381">
            <rect width="22" height="22" fill="white" transform="translate(1 1)"/>
        </clipPath>
    </defs>
</svg>
